
<svg fill="#ba500e" height="800px" width="800px" version="1.1" id="Layer_1" xmlns="http://www.w3.org/2000/svg" xmlns:xlink="http://www.w3.org/1999/xlink" 
	 viewBox="0 0 507.176 507.176" xml:space="preserve">
<g>
	<g>
		<path d="M449.712,32.844H61.416C28.644,32.844,0,59.988,0,92.76v221.888c0,32.772,28.64,58.948,61.416,58.948h238.736
			l99.22,99.456c0.752,0.76,1.768,1.28,2.796,1.28c0.512,0,0.036-0.028,0.532-0.24c1.48-0.612,1.456-1.996,1.456-3.596V373.6h45.56
			c32.776,0,57.46-26.176,57.46-58.948V92.764C507.172,59.992,482.492,32.844,449.712,32.844z M128.672,243.416
			c-24.084,0-43.668-19.588-43.668-43.672c0-24.076,19.584-43.664,43.668-43.664c24.08,0,43.664,19.588,43.664,43.664
			C172.34,223.828,152.752,243.416,128.672,243.416z M255.464,243.416c-24.08,0-43.664-19.588-43.664-43.672
			c0-24.076,19.584-43.664,43.664-43.664c24.084,0,43.668,19.588,43.668,43.664C299.132,223.828,279.544,243.416,255.464,243.416z
			 M381.776,243.416c-24.084,0-43.668-19.588-43.668-43.672c0-24.076,19.584-43.664,43.668-43.664s43.664,19.588,43.664,43.664
			C425.44,223.828,405.856,243.416,381.776,243.416z"/>
	</g>
</g>

</svg>